{
  "accessors": [
    {
      "name": "Headphones_1_0_positions",
      "componentType": 5126,
      "count": 2868,
      "min": [
        -44.82947540283203,
        48.563758850097656,
        -16.823156356811523
      ],
      "max": [
        44.82916259765625,
        126.99122619628906,
        16.823156356811523
      ],
      "type": "VEC3",
      "bufferView": 0,
      "byteOffset": 0
    },
    {
      "name": "Headphones_1_0_normals",
      "componentType": 5126,
      "count": 2868,
      "min": [
        -1,
        -0.9999789595603943,
        -1
      ],
      "max": [
        1,
        0.999981164932251,
        1
      ],
      "type": "VEC3",
      "bufferView": 1,
      "byteOffset": 0
    },
    {
      "name": "Headphones_1_0_texcoords",
      "componentType": 5126,
      "count": 2868,
      "min": [
        0.0001250000059371814,
        0.0001250000059371814
      ],
      "max": [
        0.9997559785842896,
        0.9997559785842896
      ],
      "type": "VEC2",
      "bufferView": 2,
      "byteOffset": 0
    },
    {
      "name": "Headphones_1_0_indices",
      "componentType": 5123,
      "count": 9972,
      "min": [
        0
      ],
      "max": [
        2867
      ],
      "type": "SCALAR",
      "bufferView": 3,
      "byteOffset": 0
    }
  ],
  "asset": {
    "generator": "obj2gltf",
    "version": "2.0"
  },
  "buffers": [
    {
      "name": "Headphones",
      "byteLength": 111720,
      "uri": "data:application/octet-stream;base64,"
    }
  ],
  "bufferViews": [
    {
      "name": "bufferView_0",
      "buffer": 0,
      "byteLength": 34416,
      "byteOffset": 0,
      "byteStride": 12,
      "target": 34962
    },
    {
      "name": "bufferView_1",
      "buffer": 0,
      "byteLength": 34416,
      "byteOffset": 34416,
      "byteStride": 12,
      "target": 34962
    },
    {
      "name": "bufferView_2",
      "buffer": 0,
      "byteLength": 22944,
      "byteOffset": 68832,
      "byteStride": 8,
      "target": 34962
    },
    {
      "name": "bufferView_3",
      "buffer": 0,
      "byteLength": 19944,
      "byteOffset": 91776,
      "target": 34963
    }
  ],
  "materials": [
    {
      "name": "Mat",
      "pbrMetallicRoughness": {
        "baseColorFactor": [
          0.5,
          0.5,
          0.5,
          1
        ],
        "metallicFactor": 0,
        "roughnessFactor": 1
      },
      "emissiveFactor": [
        0,
        0,
        0
      ],
      "alphaMode": "OPAQUE",
      "doubleSided": false
    }
  ],
  "meshes": [
    {
      "name": "Headphones_1",
      "primitives": [
        {
          "attributes": {
            "POSITION": 0,
            "NORMAL": 1,
            "TEXCOORD_0": 2
          },
          "indices": 3,
          "material": 0,
          "mode": 4
        }
      ]
    }
  ],
  "nodes": [
    {
      "name": "Headphones",
      "mesh": 0
    }
  ],
  "scene": 0,
  "scenes": [
    {
      "nodes": [
        0
      ]
    }
  ]
}
